<svg width="226" height="48" viewBox="0 0 226 48" fill="none" xmlns="http://www.w3.org/2000/svg">
<g clip-path="url(#clip0_885_3215)">
<path d="M1 14.4678H5.38012V18.2355H5.45697C5.91803 16.8038 8.9918 13.865 13.4488 13.865C17.1373 13.865 19.5963 15.3721 21.21 18.3862C21.993 17.021 23.1308 15.8835 24.5075 15.0894C25.8843 14.2953 27.4509 13.8728 29.0482 13.865C36.6557 13.865 38.5 19.2151 38.5 24.6405V38.8069H33.8125V25.2433C33.8125 21.551 33.0441 18.1601 28.5102 18.1601C23.9764 18.1601 22.209 21.1743 22.209 25.4694V38.8069H17.5215V26.0722C17.5215 21.4757 16.8299 18.1601 12.2961 18.1601C8.91496 18.1601 5.84119 20.6468 5.84119 26.1476V38.8069H1V14.4678Z" fill="#D4D4D4"/>
<path d="M46.5686 28.3328C46.5686 32.6279 50.5645 35.416 54.9446 35.416C57.8647 35.416 59.9395 33.9843 61.7838 31.799L65.3186 34.4364C62.7059 37.7519 59.0942 39.4097 54.3299 39.4097C46.4918 39.4097 41.5737 33.8336 41.5737 26.5997C41.5737 19.3657 46.9528 13.7896 54.4067 13.7896C63.167 13.7896 66.4713 20.3453 66.4713 26.5997V28.2574L46.5686 28.3328ZM61.3996 24.6405C61.3227 20.5714 59.0174 17.5573 54.253 17.5573C52.2924 17.5538 50.4046 18.2853 48.9761 19.6021C47.5475 20.9189 46.6862 22.7214 46.5686 24.6405H61.3996Z" fill="#D4D4D4"/>
<path d="M82.7623 18.4615H76V29.4631C76 32.1758 76 35.0392 79.5348 35.0392C80.7102 35.0873 81.8773 34.8271 82.916 34.2857V38.5055C81.5751 39.0472 80.1398 39.3287 78.6896 39.3344C71.3893 39.3344 71.3125 34.9639 71.3125 31.0455V18.4615H65.8566V14.4678H71.3125V7.61066H76V14.4678H82.7623V18.4615Z" fill="#D4D4D4"/>
<path d="M86.2971 17.482C89.0182 15.1436 92.5151 13.8577 96.1332 13.865C103.433 13.865 106.507 17.7834 106.507 22.0032V34.4365C106.507 35.9213 106.584 37.4051 106.738 38.8823H102.588C102.511 37.6766 102.434 36.3956 102.434 35.19H102.358C100.283 38.3548 97.4396 39.4851 93.6742 39.4851C89.0635 39.4851 85.0676 36.9231 85.0676 32.1759C85.0676 25.9215 91.2152 23.7363 98.7459 23.7363H102.204V22.6813C102.204 20.1947 100.36 17.5573 96.2869 17.5573C92.6752 17.5573 90.9846 19.0644 89.2172 20.3454L86.2971 17.482ZM99.668 27.1272C95.2111 27.1272 89.7551 27.8807 89.7551 31.7991C89.7551 34.5872 91.8299 35.7175 95.0574 35.7175C100.283 35.7175 102.127 31.9498 102.127 28.6343V27.1272H99.668Z" fill="#D4D4D4"/>
<path d="M124.719 20.5714C124.125 19.8088 123.357 19.1934 122.476 18.7747C121.595 18.3559 120.626 18.1454 119.648 18.1601C117.419 18.1601 115.498 19.1397 115.498 20.8728C115.498 23.8116 119.724 24.1884 121.799 24.6405C125.872 25.6201 129.023 27.1272 129.023 31.7237C129.023 37.2245 123.874 39.4097 118.956 39.4097C114.883 39.4097 111.809 38.3548 109.35 35.1146L112.885 32.2512C114.422 33.7582 116.19 35.1146 118.879 35.1146C121.261 35.1146 123.874 34.135 123.874 32.0251C123.874 29.237 119.955 28.7096 117.88 28.2575C113.884 27.2779 110.273 25.9969 110.273 21.325C110.273 16.2763 115.037 13.865 119.724 13.865C123.029 13.865 126.41 14.9953 128.177 17.8587L124.719 20.5714Z" fill="#D4D4D4"/>
<path d="M132.096 14.4678H136.784V17.9341H136.861C137.879 16.6516 139.185 15.617 140.678 14.9112C142.171 14.2054 143.81 13.8473 145.467 13.865C153.152 13.865 158.07 19.4411 158.07 26.6751C158.07 33.909 153.075 39.4851 145.467 39.4851C141.932 39.4851 138.474 37.9027 136.861 35.3407H136.784V48H132.096V14.4678ZM136.861 26.5997C136.861 31.4977 140.011 35.0393 145.006 35.0393C150.001 35.0393 153.152 31.573 153.152 26.5997C153.152 21.6264 150.001 18.1601 144.929 18.1601C139.858 18.1601 136.861 21.7017 136.861 26.5997Z" fill="#D4D4D4"/>
<path d="M161.835 0H166.523V38.8069H161.835V0Z" fill="#D4D4D4"/>
<path d="M181.968 13.865C185.447 13.8849 188.775 15.2564 191.224 17.6789C193.672 20.1013 195.042 23.377 195.032 26.7878C195.021 30.1987 193.633 33.4665 191.169 35.8748C188.706 38.2832 185.37 39.6356 181.891 39.6356C178.413 39.6356 175.076 38.2832 172.613 35.8748C170.15 33.4665 168.761 30.1987 168.751 26.7878C168.741 23.377 170.11 20.1013 172.559 17.6789C175.008 15.2564 178.336 13.8849 181.814 13.865H181.968ZM181.968 35.1146C186.963 35.1146 190.114 31.573 190.114 26.675C190.114 21.7771 186.963 18.2355 181.968 18.2355C176.973 18.2355 173.823 21.7771 173.823 26.675C173.823 31.573 176.973 35.1146 181.968 35.1146Z" fill="#D4D4D4"/>
<path d="M199.796 2.33594C200.48 2.33594 201.149 2.53481 201.717 2.90741C202.286 3.28 202.729 3.80959 202.991 4.42919C203.253 5.0488 203.321 5.73059 203.188 6.38836C203.054 7.04613 202.725 7.65033 202.241 8.12456C201.758 8.59878 201.142 8.92173 200.471 9.05257C199.8 9.18341 199.105 9.11626 198.473 8.85961C197.841 8.60296 197.301 8.16834 196.921 7.61071C196.541 7.05308 196.338 6.39749 196.338 5.72683C196.36 4.83413 196.731 3.98383 197.375 3.35242C198.019 2.72101 198.886 2.357 199.796 2.33594ZM197.414 14.4678H202.101V38.8069H197.414V14.4678Z" fill="#D4D4D4"/>
<path d="M220.775 18.4615H214.012V29.4631C214.012 32.1758 214.012 35.0392 217.547 35.0392C218.722 35.0873 219.89 34.8271 220.928 34.2857V38.5055C219.587 39.0472 218.152 39.3287 216.702 39.3344C209.402 39.3344 209.325 34.9639 209.325 31.0455V18.4615H203.869V14.4678H209.325V7.61066H214.012V14.4678H220.775V18.4615Z" fill="#D4D4D4"/>
<path d="M222.311 0.301392C223.041 0.301392 223.754 0.513522 224.361 0.910958C224.967 1.30839 225.44 1.87329 225.719 2.5342C225.998 3.19511 226.071 3.92236 225.929 4.62398C225.787 5.3256 225.435 5.97008 224.92 6.47592C224.404 6.98176 223.747 7.32624 223.031 7.4658C222.316 7.60536 221.574 7.53373 220.9 7.25998C220.226 6.98622 219.65 6.52262 219.245 5.92782C218.839 5.33301 218.623 4.63371 218.623 3.91835C218.637 2.96331 219.03 2.05123 219.719 1.37585C220.407 0.70047 221.338 0.315023 222.311 0.301392ZM222.311 7.00783C222.726 7.01186 223.138 6.93469 223.522 6.78086C223.906 6.62703 224.255 6.39961 224.548 6.11192C224.842 5.82423 225.074 5.48204 225.231 5.10539C225.387 4.72874 225.466 4.32518 225.462 3.91835C225.462 3.09896 225.13 2.31314 224.539 1.73375C223.948 1.15436 223.147 0.828864 222.311 0.828864C221.476 0.828864 220.674 1.15436 220.084 1.73375C219.493 2.31314 219.161 3.09896 219.161 3.91835C219.165 4.73651 219.498 5.52003 220.088 6.09856C220.678 6.67709 221.477 7.00387 222.311 7.00783ZM221.543 5.95288H221.005V1.80846H222.619C223.541 1.80846 223.925 2.18522 223.925 2.93875C223.924 3.23314 223.815 3.51729 223.617 3.73884C223.419 3.96039 223.147 4.10443 222.849 4.1444L224.156 5.95288H223.541L222.311 4.1444H221.543V5.95288ZM221.543 3.69229H222.235C222.849 3.69229 223.464 3.69229 223.464 2.93875C223.464 2.41128 223.003 2.26057 222.542 2.26057H221.543V3.69229Z" fill="#D4D4D4"/>
</g>
<defs>
<clipPath id="clip0_885_3215">
<rect width="225" height="48" fill="white" transform="translate(1)"/>
</clipPath>
</defs>
</svg>
